<svg version="1.1" xmlns="http://www.w3.org/2000/svg" viewBox="0 0 451.1775840437414 109.79017075689643" width="451.1775840437414" height="109.79017075689643">
  <!-- svg-source:excalidraw -->
  
  <defs>
    <style class="style-fonts">
      @font-face {
        font-family: "Virgil";
        src: url("https://excalidraw.com/Virgil.woff2");
      }
      @font-face {
        font-family: "Cascadia";
        src: url("https://excalidraw.com/Cascadia.woff2");
      }
    </style>
    
  </defs>
  <rect x="0" y="0" width="451.1775840437414" height="109.79017075689643" fill="#ffffff"></rect><g stroke-linecap="round" transform="translate(10 10) rotate(0 45.95938157573 44.2509877043629)"><path d="M22.13 0 C33.95 1.01, 47.95 0.68, 69.79 0 M22.13 0 C32.75 -0.13, 41.82 -0.23, 69.79 0 M69.79 0 C83.99 1.59, 91.16 5.38, 91.92 22.13 M69.79 0 C86.78 -1.29, 90.63 5.27, 91.92 22.13 M91.92 22.13 C93.17 38.45, 93.34 57.1, 91.92 66.38 M91.92 22.13 C91.31 32.97, 92.34 43.95, 91.92 66.38 M91.92 66.38 C92.51 82.29, 86.02 87.85, 69.79 88.5 M91.92 66.38 C93.74 82.35, 83.56 87.12, 69.79 88.5 M69.79 88.5 C54.21 89.27, 40.44 88.67, 22.13 88.5 M69.79 88.5 C51.93 87.92, 33.36 89.02, 22.13 88.5 M22.13 88.5 C7.56 86.93, 0.79 82.56, 0 66.38 M22.13 88.5 C9.07 87.31, 2.2 81.68, 0 66.38 M0 66.38 C1.36 55.66, -0.46 41.09, 0 22.13 M0 66.38 C-0.57 51.12, -0.07 34.6, 0 22.13 M0 22.13 C-0.15 8.33, 7.08 -0.94, 22.13 0 M0 22.13 C-0.86 6.73, 7.56 1.05, 22.13 0" stroke="#1e1e1e" stroke-width="0.5" fill="none"></path></g><g stroke-linecap="round" transform="translate(21.316354617749937 29.884548026122587) rotate(0 4.144707364292799 4.204357284577384)"><path d="M4.33 -0.09 C5.16 -0.13, 6.23 0.36, 6.86 0.93 C7.49 1.51, 7.95 2.48, 8.12 3.36 C8.29 4.25, 8.33 5.42, 7.88 6.24 C7.43 7.06, 6.25 8, 5.4 8.3 C4.55 8.61, 3.58 8.38, 2.76 8.07 C1.93 7.76, 0.87 7.2, 0.44 6.43 C0.01 5.66, 0 4.38, 0.16 3.46 C0.32 2.53, 0.74 1.47, 1.41 0.88 C2.08 0.28, 3.7 0.04, 4.18 -0.11 C4.65 -0.26, 4.25 -0.14, 4.24 -0.03 M4 -0.16 C4.88 -0.28, 5.9 0.03, 6.57 0.59 C7.24 1.15, 7.86 2.32, 8.03 3.21 C8.21 4.1, 7.98 5.09, 7.64 5.92 C7.31 6.75, 6.78 7.81, 6.02 8.18 C5.25 8.56, 3.97 8.44, 3.05 8.18 C2.12 7.92, 0.95 7.37, 0.48 6.61 C0.01 5.84, 0.13 4.49, 0.22 3.59 C0.31 2.69, 0.47 1.78, 1.04 1.2 C1.61 0.63, 3.16 0.36, 3.66 0.16 C4.16 -0.03, 4.04 -0.02, 4.05 0.03" stroke="none" stroke-width="0" fill="#1e1e1e"></path><path d="M3.83 -0.05 C4.64 -0.18, 5.79 0.16, 6.52 0.72 C7.26 1.28, 7.98 2.44, 8.22 3.32 C8.46 4.2, 8.38 5.19, 7.97 6 C7.56 6.81, 6.6 7.81, 5.77 8.16 C4.94 8.51, 3.79 8.35, 2.96 8.1 C2.14 7.85, 1.3 7.38, 0.82 6.65 C0.34 5.92, -0.02 4.65, 0.07 3.72 C0.16 2.8, 0.71 1.73, 1.37 1.1 C2.04 0.48, 3.64 0.13, 4.07 -0.02 C4.49 -0.16, 3.95 0.16, 3.93 0.25 M4.34 -0.15 C5.22 -0.17, 6.32 0.5, 6.98 1.08 C7.65 1.66, 8.23 2.46, 8.32 3.34 C8.42 4.22, 8.01 5.59, 7.55 6.36 C7.08 7.14, 6.35 7.73, 5.53 8 C4.71 8.26, 3.5 8.25, 2.63 7.97 C1.77 7.7, 0.78 7.13, 0.35 6.35 C-0.08 5.57, -0.18 4.18, 0.05 3.3 C0.27 2.42, 1.02 1.66, 1.68 1.09 C2.34 0.51, 3.65 0.02, 4.02 -0.16 C4.39 -0.34, 3.9 -0.08, 3.88 -0.02" stroke="#1e1e1e" stroke-width="1" fill="none"></path></g><g stroke-linecap="round"><g transform="translate(29.71521162524624 34.53263472075784) rotate(0 27.626068083267 -0.14040154182825404)"><path d="M-0.12 0.1 C9.11 0.04, 46.08 -0.31, 55.32 -0.38 M0.08 0.03 C9.31 -0.02, 46.05 -0.21, 55.24 -0.24" stroke="#1e1e1e" stroke-width="1" fill="none"></path></g></g><mask></mask><g stroke-linecap="round" transform="translate(52.48217626374134 72.71096051130908) rotate(0 4.144707364292799 4.204357284577384)"><path d="M3.75 -0.12 C4.58 -0.22, 5.72 0.25, 6.44 0.79 C7.15 1.34, 7.78 2.31, 8.04 3.17 C8.29 4.03, 8.34 5.15, 7.98 5.94 C7.62 6.74, 6.7 7.52, 5.88 7.92 C5.05 8.31, 3.92 8.52, 3.04 8.31 C2.15 8.1, 1.07 7.42, 0.58 6.65 C0.09 5.88, -0.04 4.61, 0.09 3.7 C0.21 2.78, 0.72 1.76, 1.34 1.15 C1.95 0.53, 3.35 0.2, 3.77 0.01 C4.18 -0.18, 3.81 -0.05, 3.82 0.03 M4.19 0.02 C5.1 -0.04, 6.24 0.23, 6.89 0.83 C7.55 1.43, 7.93 2.71, 8.11 3.62 C8.28 4.54, 8.37 5.56, 7.94 6.31 C7.51 7.06, 6.44 7.79, 5.55 8.12 C4.66 8.44, 3.4 8.51, 2.6 8.25 C1.79 7.99, 1.14 7.35, 0.72 6.56 C0.29 5.76, -0.09 4.43, 0.05 3.5 C0.2 2.58, 0.89 1.62, 1.58 1.02 C2.27 0.42, 3.77 0.05, 4.2 -0.1 C4.63 -0.25, 4.18 0.04, 4.17 0.12" stroke="none" stroke-width="0" fill="#1e1e1e"></path><path d="M3.97 -0.15 C4.8 -0.21, 5.91 0.31, 6.64 0.91 C7.38 1.51, 8.16 2.55, 8.37 3.45 C8.58 4.35, 8.37 5.54, 7.92 6.31 C7.47 7.07, 6.52 7.73, 5.68 8.06 C4.84 8.38, 3.72 8.55, 2.88 8.27 C2.05 7.98, 1.14 7.15, 0.68 6.34 C0.22 5.53, 0.03 4.29, 0.13 3.42 C0.22 2.54, 0.57 1.64, 1.26 1.08 C1.94 0.51, 3.75 0.19, 4.23 0.01 C4.71 -0.17, 4.16 -0.08, 4.15 0.01 M4.33 0.24 C5.13 0.19, 6.14 0.53, 6.78 1.06 C7.42 1.59, 8.01 2.5, 8.17 3.43 C8.32 4.35, 8.17 5.84, 7.72 6.62 C7.27 7.4, 6.3 7.87, 5.48 8.09 C4.65 8.32, 3.56 8.28, 2.75 7.97 C1.93 7.67, 1 7.04, 0.57 6.27 C0.14 5.5, 0.03 4.27, 0.17 3.34 C0.31 2.41, 0.73 1.27, 1.42 0.68 C2.12 0.09, 3.88 -0.09, 4.36 -0.22 C4.84 -0.35, 4.33 -0.23, 4.3 -0.1" stroke="#1e1e1e" stroke-width="1" fill="none"></path></g><g stroke-linecap="round" transform="translate(81.19222683906486 30.214717365584107) rotate(0 4.144707364292799 4.204357284577384)"><path d="M3.75 -0.02 C4.64 -0.14, 5.97 0.19, 6.72 0.71 C7.46 1.23, 8.03 2.18, 8.23 3.08 C8.42 3.99, 8.33 5.3, 7.9 6.14 C7.48 6.99, 6.49 7.82, 5.68 8.16 C4.87 8.5, 3.86 8.45, 3.04 8.18 C2.22 7.9, 1.28 7.25, 0.76 6.51 C0.24 5.77, -0.17 4.64, -0.09 3.74 C-0.02 2.84, 0.53 1.71, 1.19 1.1 C1.84 0.49, 3.38 0.27, 3.83 0.08 C4.28 -0.11, 3.89 -0.13, 3.9 -0.06 M4.07 0.23 C4.92 0.21, 6.32 0.53, 7 1.08 C7.67 1.62, 8.06 2.6, 8.14 3.49 C8.23 4.38, 7.93 5.59, 7.51 6.4 C7.1 7.21, 6.46 8.06, 5.66 8.34 C4.85 8.63, 3.53 8.44, 2.7 8.09 C1.88 7.75, 1.12 7.05, 0.7 6.26 C0.29 5.47, 0.05 4.22, 0.2 3.35 C0.35 2.47, 0.93 1.56, 1.61 1.01 C2.28 0.45, 3.78 0.18, 4.24 -0.01 C4.7 -0.2, 4.38 -0.19, 4.36 -0.13" stroke="none" stroke-width="0" fill="#1e1e1e"></path><path d="M4 0.08 C4.88 -0.02, 6.01 0.36, 6.71 0.87 C7.41 1.37, 7.99 2.23, 8.2 3.1 C8.4 3.98, 8.33 5.3, 7.95 6.11 C7.57 6.93, 6.73 7.66, 5.92 8 C5.11 8.33, 3.99 8.34, 3.1 8.1 C2.21 7.87, 1.05 7.32, 0.56 6.6 C0.07 5.89, 0.05 4.71, 0.17 3.79 C0.29 2.88, 0.67 1.73, 1.29 1.12 C1.91 0.52, 3.46 0.33, 3.9 0.17 C4.34 0.02, 3.95 0.14, 3.96 0.19 M4.38 -0.18 C5.26 -0.13, 6.45 0.74, 7.11 1.39 C7.77 2.03, 8.22 2.84, 8.32 3.69 C8.42 4.53, 8.21 5.68, 7.72 6.45 C7.22 7.23, 6.21 8.08, 5.34 8.35 C4.47 8.61, 3.36 8.47, 2.51 8.04 C1.65 7.62, 0.62 6.66, 0.23 5.8 C-0.15 4.95, -0.05 3.8, 0.2 2.93 C0.45 2.06, 1.05 1.06, 1.75 0.59 C2.45 0.13, 3.94 0.28, 4.41 0.17 C4.87 0.05, 4.57 -0.13, 4.54 -0.12" stroke="#1e1e1e" stroke-width="1" fill="none"></path></g><g stroke-linecap="round"><g transform="translate(27.584411755146732 35.26561335824363) rotate(0 14.157843710535246 19.93082475394442)"><path d="M0.13 0.13 C4.87 6.73, 23.73 33.04, 28.45 39.64 M-0.11 -0.03 C4.61 6.59, 23.57 33.18, 28.33 39.84" stroke="#1e1e1e" stroke-width="1" fill="none"></path></g></g><mask></mask><g stroke-linecap="round"><g transform="translate(84.21785132584404 37.127998516024405) rotate(0 -13.219424581697808 19.704736977029782)"><path d="M-0.04 0.08 C-4.42 6.71, -21.94 33.04, -26.36 39.61 M-0.35 -0.09 C-4.74 6.5, -22.22 32.77, -26.51 39.3" stroke="#1e1e1e" stroke-width="1" fill="none"></path></g></g><mask></mask><g stroke-linecap="round" transform="translate(123.07958357139137 11.288195348170632) rotate(0 45.95938157572999 44.2509877043629)"><path d="M22.13 0 C40.8 -0.54, 60.47 -1.07, 69.79 0 M22.13 0 C39.04 0.06, 56.58 -0.83, 69.79 0 M69.79 0 C85.27 1.39, 93.4 5.61, 91.92 22.13 M69.79 0 C86.54 -1.72, 91.75 6.59, 91.92 22.13 M91.92 22.13 C93 37.27, 93.66 53.31, 91.92 66.38 M91.92 22.13 C92.77 36.08, 91.94 50.1, 91.92 66.38 M91.92 66.38 C92.89 82.87, 86.28 87.37, 69.79 88.5 M91.92 66.38 C92.11 79.65, 82.69 86.24, 69.79 88.5 M69.79 88.5 C51.03 87.27, 34.69 88.41, 22.13 88.5 M69.79 88.5 C52.08 88.94, 33.94 88.46, 22.13 88.5 M22.13 88.5 C9.15 89.4, 1.62 82.73, 0 66.38 M22.13 88.5 C6.76 89.21, -0.28 82.02, 0 66.38 M0 66.38 C0.73 52.97, -0.82 41.89, 0 22.13 M0 66.38 C0.47 49.81, -0.32 32.62, 0 22.13 M0 22.13 C-0.95 9.07, 7.23 0.63, 22.13 0 M0 22.13 C-0.75 5.72, 8.38 0.98, 22.13 0" stroke="#1e1e1e" stroke-width="0.5" fill="none"></path></g><g stroke-linecap="round" transform="translate(134.3959381891413 31.172743374293248) rotate(0 4.144707364292799 4.204357284577384)"><path d="M4.12 -0.05 C4.96 -0.14, 6.1 0.27, 6.8 0.82 C7.49 1.37, 8.13 2.37, 8.28 3.26 C8.44 4.16, 8.14 5.39, 7.73 6.17 C7.31 6.96, 6.59 7.65, 5.79 7.98 C5 8.32, 3.79 8.48, 2.94 8.2 C2.09 7.91, 1.18 7.06, 0.72 6.27 C0.26 5.49, 0.04 4.36, 0.18 3.49 C0.32 2.61, 0.89 1.62, 1.55 1.03 C2.21 0.44, 3.73 0.09, 4.14 -0.05 C4.55 -0.2, 4 0.08, 4.01 0.15 M4.26 0.01 C5.12 -0.06, 6.42 0.27, 7.04 0.86 C7.67 1.46, 7.95 2.65, 8.02 3.57 C8.1 4.49, 7.88 5.64, 7.49 6.37 C7.11 7.1, 6.47 7.67, 5.71 7.94 C4.96 8.21, 3.85 8.23, 2.96 7.97 C2.07 7.71, 0.87 7.16, 0.36 6.38 C-0.14 5.59, -0.26 4.12, -0.08 3.27 C0.11 2.41, 0.77 1.8, 1.48 1.22 C2.19 0.64, 3.76 -0.03, 4.2 -0.21 C4.64 -0.39, 4.13 0.04, 4.1 0.14" stroke="none" stroke-width="0" fill="#1e1e1e"></path><path d="M3.99 -0.09 C4.82 -0.19, 6.04 0.25, 6.71 0.83 C7.39 1.42, 7.86 2.5, 8.05 3.42 C8.25 4.34, 8.32 5.52, 7.9 6.33 C7.48 7.13, 6.39 7.95, 5.52 8.26 C4.66 8.56, 3.54 8.47, 2.71 8.18 C1.88 7.89, 0.99 7.25, 0.56 6.51 C0.13 5.76, -0.03 4.62, 0.12 3.7 C0.27 2.78, 0.79 1.61, 1.47 0.99 C2.14 0.36, 3.74 0.06, 4.18 -0.07 C4.62 -0.2, 4.11 0.11, 4.12 0.21 M4.18 0.21 C5.07 0.14, 6.28 0.29, 6.96 0.79 C7.63 1.3, 8.13 2.37, 8.23 3.24 C8.33 4.1, 7.98 5.18, 7.58 6 C7.17 6.81, 6.56 7.8, 5.79 8.14 C5.03 8.47, 3.88 8.31, 2.98 8.01 C2.08 7.71, 0.9 7.04, 0.41 6.32 C-0.09 5.61, -0.16 4.59, 0 3.73 C0.15 2.86, 0.65 1.74, 1.33 1.13 C2 0.52, 3.61 0.25, 4.04 0.06 C4.47 -0.12, 3.88 -0.05, 3.92 0.03" stroke="#1e1e1e" stroke-width="1" fill="none"></path></g><g stroke-linecap="round"><g transform="translate(142.7947951966376 36.045885481564994) rotate(0 27.626068083267 -0.14040154182825404)"><path d="M-0.05 0.1 C9.17 0.03, 46.09 -0.25, 55.3 -0.31 M0.19 0.02 C9.4 -0.03, 46.06 -0.12, 55.21 -0.15" stroke="#1e1e1e" stroke-width="1" fill="none"></path></g></g><mask></mask><g stroke-linecap="round" transform="translate(134.48965979140445 74.84569456756185) rotate(0 4.144707364292799 4.204357284577384)"><path d="M4.11 -0.12 C4.94 -0.18, 5.97 0.31, 6.68 0.86 C7.38 1.42, 8.15 2.34, 8.35 3.23 C8.56 4.13, 8.34 5.43, 7.91 6.23 C7.48 7.02, 6.6 7.69, 5.78 8.01 C4.95 8.32, 3.79 8.38, 2.95 8.11 C2.12 7.84, 1.22 7.15, 0.75 6.38 C0.27 5.62, 0.01 4.4, 0.1 3.52 C0.19 2.65, 0.61 1.71, 1.29 1.12 C1.96 0.53, 3.67 0.15, 4.14 -0.01 C4.6 -0.17, 4.11 0.08, 4.09 0.16 M3.95 0.09 C4.72 0.07, 5.84 0.53, 6.57 1.06 C7.31 1.58, 8.15 2.42, 8.38 3.27 C8.61 4.12, 8.46 5.31, 7.96 6.13 C7.46 6.96, 6.26 7.93, 5.36 8.23 C4.46 8.53, 3.38 8.23, 2.58 7.94 C1.78 7.66, 0.96 7.31, 0.55 6.53 C0.14 5.75, -0.03 4.17, 0.12 3.26 C0.27 2.34, 0.79 1.58, 1.44 1.03 C2.09 0.49, 3.55 0.14, 4.02 -0.01 C4.48 -0.16, 4.17 0.03, 4.21 0.13" stroke="none" stroke-width="0" fill="#1e1e1e"></path><path d="M3.81 0.06 C4.67 0, 6.07 0.42, 6.78 0.98 C7.48 1.55, 7.89 2.57, 8.05 3.43 C8.2 4.28, 8.1 5.33, 7.7 6.13 C7.31 6.92, 6.47 7.82, 5.68 8.19 C4.9 8.56, 3.81 8.63, 2.98 8.33 C2.16 8.04, 1.19 7.19, 0.72 6.4 C0.25 5.61, 0.05 4.45, 0.16 3.59 C0.27 2.73, 0.71 1.82, 1.37 1.24 C2.04 0.65, 3.71 0.28, 4.14 0.08 C4.58 -0.12, 4.01 -0.04, 3.97 0.03 M4.46 -0.15 C5.23 -0.16, 6.17 0.29, 6.83 0.94 C7.49 1.6, 8.27 2.87, 8.42 3.78 C8.58 4.68, 8.31 5.65, 7.76 6.38 C7.2 7.12, 5.98 7.89, 5.09 8.19 C4.2 8.5, 3.2 8.56, 2.4 8.21 C1.61 7.87, 0.71 6.97, 0.33 6.14 C-0.06 5.31, -0.1 4.14, 0.1 3.25 C0.31 2.35, 0.8 1.27, 1.56 0.75 C2.32 0.22, 4.14 0.2, 4.65 0.12 C5.16 0.04, 4.68 0.23, 4.63 0.29" stroke="#1e1e1e" stroke-width="1" fill="none"></path></g><g stroke-linecap="round" transform="translate(194.27181041045623 31.50291271375471) rotate(0 4.144707364292799 4.204357284577384)"><path d="M3.87 -0.05 C4.72 -0.15, 6.04 0.15, 6.78 0.71 C7.52 1.26, 8.11 2.39, 8.31 3.27 C8.51 4.15, 8.36 5.21, 7.96 6 C7.55 6.78, 6.71 7.63, 5.9 8 C5.08 8.37, 3.94 8.47, 3.07 8.21 C2.21 7.96, 1.25 7.19, 0.72 6.44 C0.19 5.7, -0.2 4.65, -0.09 3.77 C0.02 2.88, 0.71 1.74, 1.38 1.12 C2.06 0.51, 3.52 0.24, 3.95 0.08 C4.37 -0.08, 3.93 0.08, 3.94 0.16 M3.74 0.07 C4.64 -0.07, 6.05 0.15, 6.83 0.66 C7.61 1.17, 8.29 2.2, 8.43 3.13 C8.56 4.05, 8.1 5.44, 7.62 6.23 C7.15 7.02, 6.37 7.52, 5.58 7.89 C4.79 8.25, 3.7 8.72, 2.88 8.44 C2.07 8.17, 1.18 7.03, 0.7 6.24 C0.21 5.45, -0.09 4.56, -0.01 3.7 C0.08 2.84, 0.54 1.7, 1.22 1.09 C1.89 0.48, 3.56 0.19, 4.03 0.05 C4.5 -0.08, 4.05 0.28, 4.06 0.3" stroke="none" stroke-width="0" fill="#1e1e1e"></path><path d="M4.09 0.12 C4.94 0.05, 5.88 0.49, 6.54 1.02 C7.2 1.55, 7.87 2.43, 8.07 3.3 C8.28 4.17, 8.14 5.44, 7.76 6.26 C7.38 7.08, 6.59 7.9, 5.79 8.21 C4.99 8.52, 3.79 8.44, 2.95 8.14 C2.11 7.83, 1.24 7.1, 0.76 6.37 C0.28 5.65, -0.05 4.63, 0.07 3.76 C0.2 2.9, 0.87 1.81, 1.52 1.17 C2.17 0.54, 3.56 0.12, 3.96 -0.05 C4.37 -0.22, 3.93 0.06, 3.96 0.16 M3.76 -0.23 C4.62 -0.3, 6.05 0.32, 6.81 0.87 C7.58 1.43, 8.23 2.24, 8.37 3.11 C8.5 3.98, 8.08 5.22, 7.63 6.08 C7.19 6.94, 6.49 7.88, 5.69 8.25 C4.88 8.63, 3.66 8.6, 2.81 8.31 C1.97 8.02, 1.12 7.32, 0.63 6.53 C0.14 5.75, -0.27 4.49, -0.11 3.61 C0.04 2.72, 0.84 1.79, 1.55 1.22 C2.26 0.65, 3.76 0.38, 4.15 0.2 C4.54 0.02, 3.93 0.11, 3.89 0.16" stroke="#1e1e1e" stroke-width="1" fill="none"></path></g><g stroke-linecap="round"><g transform="translate(138.97091791037377 36.38450096479784) rotate(0 -0.15691937027867198 21.50930973523424)"><path d="M-0.07 -0.14 C-0.1 7.05, -0.24 35.95, -0.26 43.12 M0.16 0.11 C0.12 7.26, -0.28 35.77, -0.35 42.92" stroke="#1e1e1e" stroke-width="1" fill="none"></path></g></g><mask></mask><g stroke-linecap="round"><g transform="translate(199.30228632540076 37.34459974347635) rotate(0 -0.3148711048354471 20.634897191641997)"><path d="M0.05 0.1 C-0.02 6.98, -0.43 34.3, -0.52 41.14 M-0.1 0.03 C-0.18 6.93, -0.51 34.39, -0.58 41.26" stroke="#1e1e1e" stroke-width="1" fill="none"></path></g></g><mask></mask><g stroke-linecap="round" transform="translate(193.65386184350308 76.19415758578378) rotate(0 3.862871916358131 3.7924439375959196)"><path d="M3.8 0.1 C4.61 0.03, 5.66 0.42, 6.3 0.9 C6.93 1.37, 7.46 2.17, 7.61 2.93 C7.75 3.69, 7.57 4.74, 7.18 5.45 C6.79 6.16, 6.02 6.88, 5.26 7.2 C4.51 7.51, 3.43 7.57, 2.64 7.34 C1.86 7.12, 1 6.53, 0.54 5.83 C0.08 5.14, -0.22 3.98, -0.12 3.15 C-0.03 2.33, 0.48 1.42, 1.11 0.87 C1.74 0.32, 3.25 0, 3.67 -0.14 C4.09 -0.28, 3.62 -0.07, 3.63 0.02 M3.53 -0.18 C4.29 -0.25, 5.57 0.29, 6.29 0.81 C7 1.33, 7.66 2.13, 7.84 2.92 C8.02 3.71, 7.75 4.86, 7.36 5.55 C6.97 6.24, 6.27 6.74, 5.51 7.05 C4.75 7.36, 3.59 7.63, 2.81 7.42 C2.02 7.21, 1.28 6.52, 0.78 5.81 C0.29 5.11, -0.25 3.99, -0.16 3.19 C-0.06 2.39, 0.74 1.56, 1.34 1.02 C1.95 0.49, 3.12 0.13, 3.49 0.01 C3.86 -0.12, 3.54 0.21, 3.55 0.29" stroke="none" stroke-width="0" fill="#1e1e1e"></path><path d="M3.61 0.04 C4.38 -0.06, 5.49 0.36, 6.16 0.82 C6.83 1.29, 7.43 2.03, 7.64 2.82 C7.84 3.61, 7.77 4.82, 7.39 5.56 C7.02 6.3, 6.13 6.95, 5.37 7.25 C4.62 7.55, 3.63 7.64, 2.87 7.38 C2.1 7.12, 1.22 6.37, 0.78 5.7 C0.33 5.04, 0.1 4.12, 0.17 3.37 C0.24 2.61, 0.6 1.72, 1.19 1.17 C1.77 0.62, 3.27 0.28, 3.68 0.07 C4.09 -0.13, 3.68 -0.09, 3.66 -0.07 M3.9 -0.14 C4.66 -0.17, 5.47 0.36, 6.13 0.87 C6.79 1.39, 7.64 2.2, 7.84 2.96 C8.04 3.72, 7.78 4.72, 7.33 5.43 C6.88 6.15, 5.97 6.93, 5.16 7.25 C4.36 7.57, 3.23 7.56, 2.49 7.34 C1.76 7.11, 1.17 6.59, 0.77 5.91 C0.36 5.24, 0 4.12, 0.07 3.29 C0.15 2.47, 0.63 1.54, 1.22 0.96 C1.81 0.38, 3.13 -0.08, 3.59 -0.19 C4.06 -0.3, 3.97 0.23, 4.02 0.31" stroke="#1e1e1e" stroke-width="1" fill="none"></path></g><g stroke-linecap="round"><g transform="translate(141.9085122843304 79.71803463226874) rotate(0 27.657039011611452 -0.026841471231847436)"><path d="M0.13 -0.08 C9.35 -0.06, 46.16 0.01, 55.36 0.03 M0.01 0.2 C9.22 0.18, 46.06 -0.12, 55.26 -0.19" stroke="#1e1e1e" stroke-width="1" fill="none"></path></g></g><mask></mask><g stroke-linecap="round" transform="translate(235.30377479185563 10.584122910472985) rotate(0 45.95938157572999 44.250987704362885)"><path d="M22.13 0 C32.79 1.72, 40.47 1.14, 69.79 0 M22.13 0 C38.94 0.16, 55.39 0.95, 69.79 0 M69.79 0 C84.64 -1.74, 92.57 5.65, 91.92 22.13 M69.79 0 C86.25 -0.52, 92.63 7.13, 91.92 22.13 M91.92 22.13 C92.46 30.74, 92.51 42.07, 91.92 66.38 M91.92 22.13 C92.47 37.25, 91.63 51.55, 91.92 66.38 M91.92 66.38 C93.25 80.55, 84.89 88.32, 69.79 88.5 M91.92 66.38 C90.02 79.93, 84.12 88.16, 69.79 88.5 M69.79 88.5 C59.03 88.46, 46.31 89.99, 22.13 88.5 M69.79 88.5 C51.83 88.5, 33.34 88.75, 22.13 88.5 M22.13 88.5 C8.04 89.55, 0.73 80.96, 0 66.38 M22.13 88.5 C7.56 88.11, 0.09 79.95, 0 66.38 M0 66.38 C1.24 50.56, 0.52 34.93, 0 22.13 M0 66.38 C1.16 49.71, 1.25 32.02, 0 22.13 M0 22.13 C1.2 6.89, 5.57 -0.42, 22.13 0 M0 22.13 C-1.37 8.05, 9.14 1.15, 22.13 0" stroke="#1e1e1e" stroke-width="0.5" fill="none"></path></g><g stroke-linecap="round" transform="translate(246.62012940960557 30.4686709365956) rotate(0 4.144707364292799 4.204357284577384)"><path d="M4.09 0.12 C4.94 0.08, 6.16 0.46, 6.87 1.03 C7.58 1.61, 8.19 2.66, 8.34 3.56 C8.49 4.47, 8.22 5.72, 7.77 6.47 C7.33 7.22, 6.52 7.75, 5.68 8.05 C4.83 8.35, 3.55 8.55, 2.7 8.28 C1.86 8.01, 1.05 7.22, 0.61 6.43 C0.17 5.64, -0.11 4.48, 0.04 3.54 C0.18 2.61, 0.77 1.43, 1.46 0.82 C2.15 0.21, 3.7 0.01, 4.16 -0.1 C4.63 -0.2, 4.25 0.12, 4.27 0.21 M4.15 -0.07 C5.06 -0.12, 6.15 0.54, 6.84 1.08 C7.54 1.62, 8.15 2.36, 8.31 3.17 C8.48 3.98, 8.3 5.12, 7.86 5.95 C7.41 6.79, 6.49 7.8, 5.63 8.16 C4.78 8.53, 3.57 8.42, 2.74 8.13 C1.91 7.83, 1.07 7.11, 0.64 6.38 C0.21 5.64, 0.03 4.6, 0.16 3.72 C0.28 2.85, 0.72 1.74, 1.4 1.11 C2.07 0.48, 3.74 0.12, 4.2 -0.05 C4.66 -0.22, 4.18 -0.02, 4.16 0.07" stroke="none" stroke-width="0" fill="#1e1e1e"></path><path d="M4.28 0 C5.11 -0.04, 6.27 0.44, 6.95 1.05 C7.63 1.67, 8.29 2.76, 8.38 3.68 C8.47 4.59, 8.02 5.75, 7.49 6.53 C6.97 7.3, 6.07 8.07, 5.24 8.34 C4.41 8.61, 3.31 8.52, 2.51 8.13 C1.71 7.75, 0.84 6.81, 0.45 6.02 C0.05 5.23, -0.07 4.29, 0.13 3.41 C0.34 2.53, 0.96 1.31, 1.67 0.73 C2.38 0.16, 3.94 0.1, 4.41 -0.03 C4.87 -0.16, 4.44 -0.15, 4.44 -0.05 M4.44 -0.07 C5.29 -0.1, 6.35 0.46, 6.95 1.05 C7.56 1.65, 7.94 2.6, 8.05 3.49 C8.16 4.38, 8.08 5.61, 7.62 6.39 C7.16 7.18, 6.08 7.9, 5.27 8.19 C4.46 8.49, 3.56 8.51, 2.76 8.16 C1.95 7.8, 0.87 6.82, 0.44 6.05 C0.02 5.28, 0.04 4.45, 0.23 3.56 C0.42 2.67, 0.87 1.29, 1.58 0.71 C2.28 0.13, 3.97 0.17, 4.45 0.09 C4.94 0.01, 4.51 0.16, 4.49 0.23" stroke="#1e1e1e" stroke-width="1" fill="none"></path></g><g stroke-linecap="round"><g transform="translate(255.01898641710187 35.34181304386735) rotate(0 27.626068083267 -0.14040154182825404)"><path d="M0.09 0.08 C9.29 0.03, 46.17 -0.28, 55.36 -0.34 M-0.05 -0.01 C9.14 -0.03, 46.1 -0.16, 55.3 -0.18" stroke="#1e1e1e" stroke-width="1" fill="none"></path></g></g><mask></mask><g stroke-linecap="round" transform="translate(246.48286128776783 74.2550422339138) rotate(0 4.144707364292799 4.204357284577384)"><path d="M4.51 0.07 C5.35 0.09, 6.4 0.7, 7.05 1.29 C7.7 1.88, 8.31 2.72, 8.4 3.61 C8.49 4.5, 8.1 5.86, 7.6 6.66 C7.1 7.45, 6.25 8.14, 5.39 8.39 C4.53 8.64, 3.29 8.57, 2.46 8.16 C1.63 7.75, 0.79 6.77, 0.4 5.94 C0 5.1, -0.14 3.96, 0.08 3.13 C0.3 2.3, 0.99 1.46, 1.73 0.95 C2.46 0.44, 4.06 0.21, 4.5 0.05 C4.94 -0.12, 4.37 -0.13, 4.35 -0.04 M4.17 -0.12 C4.99 -0.26, 6.11 0.13, 6.77 0.73 C7.42 1.32, 7.97 2.55, 8.11 3.45 C8.25 4.35, 8.04 5.37, 7.62 6.13 C7.21 6.89, 6.42 7.68, 5.64 8.03 C4.86 8.39, 3.77 8.53, 2.94 8.26 C2.11 7.98, 1.1 7.18, 0.66 6.39 C0.22 5.61, 0.13 4.41, 0.28 3.52 C0.44 2.62, 0.95 1.61, 1.6 1.03 C2.24 0.46, 3.7 0.19, 4.14 0.07 C4.58 -0.05, 4.27 0.24, 4.24 0.32" stroke="none" stroke-width="0" fill="#1e1e1e"></path><path d="M4.27 0.01 C5.09 -0.03, 6.03 0.44, 6.67 1.04 C7.3 1.63, 7.91 2.71, 8.09 3.59 C8.26 4.48, 8.12 5.61, 7.7 6.35 C7.28 7.1, 6.37 7.72, 5.55 8.04 C4.72 8.36, 3.59 8.6, 2.76 8.29 C1.94 7.98, 1.04 6.99, 0.59 6.18 C0.15 5.37, -0.05 4.33, 0.1 3.44 C0.26 2.55, 0.85 1.4, 1.53 0.85 C2.22 0.3, 3.75 0.27, 4.21 0.15 C4.66 0.02, 4.27 0.04, 4.26 0.1 M3.85 -0.13 C4.68 -0.2, 5.99 0.3, 6.69 0.89 C7.39 1.47, 7.84 2.47, 8.05 3.37 C8.26 4.27, 8.35 5.5, 7.94 6.27 C7.54 7.04, 6.44 7.63, 5.61 7.99 C4.78 8.34, 3.8 8.71, 2.96 8.41 C2.12 8.11, 1.05 6.99, 0.59 6.2 C0.14 5.41, 0.05 4.49, 0.22 3.66 C0.39 2.83, 0.96 1.78, 1.62 1.2 C2.27 0.61, 3.71 0.32, 4.13 0.13 C4.55 -0.06, 4.15 0.02, 4.14 0.07" stroke="#1e1e1e" stroke-width="1" fill="none"></path></g><g stroke-linecap="round" transform="translate(306.4960016309205 30.798840276057064) rotate(0 4.144707364292799 4.204357284577384)"><path d="M4.26 0.14 C5.11 0.07, 6.34 0.32, 7 0.91 C7.66 1.5, 8.11 2.74, 8.24 3.68 C8.36 4.61, 8.23 5.75, 7.77 6.51 C7.31 7.28, 6.33 8.03, 5.47 8.27 C4.61 8.52, 3.46 8.34, 2.63 7.99 C1.8 7.63, 0.91 6.89, 0.49 6.15 C0.07 5.41, -0.06 4.39, 0.12 3.53 C0.31 2.67, 0.94 1.59, 1.61 0.98 C2.28 0.37, 3.71 -0.01, 4.15 -0.14 C4.6 -0.26, 4.26 0.1, 4.27 0.21 M4.47 -0.18 C5.28 -0.14, 6.32 0.61, 6.93 1.26 C7.53 1.9, 8 2.81, 8.11 3.68 C8.22 4.55, 8.02 5.7, 7.57 6.47 C7.11 7.24, 6.25 8.05, 5.4 8.31 C4.56 8.58, 3.3 8.43, 2.51 8.05 C1.72 7.66, 1.02 6.8, 0.65 5.99 C0.29 5.17, 0.12 4.02, 0.32 3.17 C0.51 2.31, 1.09 1.36, 1.81 0.87 C2.53 0.38, 4.2 0.35, 4.63 0.24 C5.05 0.13, 4.42 0.15, 4.35 0.21" stroke="none" stroke-width="0" fill="#1e1e1e"></path><path d="M3.88 0.05 C4.68 -0.01, 5.86 0.47, 6.57 1.02 C7.29 1.58, 7.97 2.56, 8.17 3.4 C8.37 4.24, 8.19 5.28, 7.78 6.08 C7.37 6.89, 6.53 7.91, 5.71 8.24 C4.9 8.57, 3.72 8.38, 2.88 8.07 C2.04 7.76, 1.12 7.15, 0.66 6.38 C0.19 5.61, -0.03 4.32, 0.1 3.46 C0.22 2.6, 0.75 1.79, 1.42 1.21 C2.09 0.64, 3.67 0.19, 4.11 0.02 C4.55 -0.16, 4.09 0.12, 4.07 0.19 M4.07 -0.04 C4.92 -0.08, 5.91 0.37, 6.63 0.96 C7.35 1.54, 8.2 2.63, 8.38 3.5 C8.56 4.36, 8.15 5.33, 7.71 6.15 C7.26 6.96, 6.56 8.06, 5.73 8.37 C4.91 8.67, 3.58 8.3, 2.75 7.98 C1.91 7.65, 1.15 7.14, 0.74 6.42 C0.33 5.7, 0.13 4.54, 0.27 3.65 C0.4 2.77, 0.88 1.74, 1.54 1.13 C2.19 0.52, 3.77 0.16, 4.2 -0.02 C4.63 -0.2, 4.15 -0.01, 4.13 0.04" stroke="#1e1e1e" stroke-width="1" fill="none"></path></g><g stroke-linecap="round"><g transform="translate(251.50894787139538 35.96329633931302) rotate(0 -0.15691937027867198 21.649711277062522)"><path d="M-0.05 0.11 C-0.11 7.31, -0.27 35.99, -0.31 43.17 M0.19 0.04 C0.12 7.25, -0.33 36.09, -0.42 43.29" stroke="#1e1e1e" stroke-width="1" fill="none"></path></g></g><mask></mask><g stroke-linecap="round"><g transform="translate(311.526477545865 36.64052730577876) rotate(0 -0.3148711048354471 20.634897191641997)"><path d="M0.01 -0.13 C-0.08 6.71, -0.49 34.25, -0.58 41.14 M-0.17 0.12 C-0.27 6.97, -0.61 34.39, -0.67 41.26" stroke="#1e1e1e" stroke-width="1" fill="none"></path></g></g><mask></mask><g stroke-linecap="round" transform="translate(305.87805306396734 75.49008514808614) rotate(0 3.862871916358131 3.7924439375959196)"><path d="M3.71 0.16 C4.48 0.06, 5.49 0.41, 6.14 0.85 C6.78 1.28, 7.39 2.01, 7.58 2.77 C7.77 3.53, 7.64 4.63, 7.28 5.4 C6.92 6.17, 6.18 7.05, 5.44 7.4 C4.7 7.74, 3.65 7.74, 2.83 7.46 C2.02 7.19, 1.02 6.41, 0.55 5.74 C0.08 5.08, -0.08 4.24, 0.03 3.48 C0.13 2.71, 0.53 1.71, 1.16 1.15 C1.8 0.58, 3.4 0.26, 3.81 0.09 C4.22 -0.09, 3.67 0.06, 3.63 0.1 M3.94 -0.08 C4.78 -0.09, 5.91 0.46, 6.54 1.01 C7.17 1.57, 7.59 2.44, 7.73 3.23 C7.88 4.01, 7.8 5.02, 7.39 5.71 C6.98 6.4, 6.09 7.09, 5.28 7.37 C4.48 7.65, 3.32 7.65, 2.55 7.39 C1.78 7.13, 1.08 6.54, 0.66 5.84 C0.23 5.13, -0.1 3.97, -0.01 3.16 C0.09 2.35, 0.57 1.49, 1.22 0.98 C1.88 0.48, 3.49 0.3, 3.91 0.13 C4.33 -0.03, 3.78 -0.04, 3.75 -0.03" stroke="none" stroke-width="0" fill="#1e1e1e"></path><path d="M4.07 -0.1 C4.87 -0.09, 5.94 0.61, 6.55 1.17 C7.16 1.72, 7.64 2.45, 7.74 3.23 C7.83 4.01, 7.58 5.17, 7.13 5.84 C6.67 6.52, 5.81 7.03, 5.02 7.29 C4.23 7.55, 3.12 7.72, 2.37 7.42 C1.61 7.12, 0.85 6.24, 0.47 5.5 C0.1 4.77, -0.07 3.81, 0.1 3.02 C0.28 2.23, 0.85 1.3, 1.51 0.78 C2.18 0.25, 3.68 0, 4.1 -0.12 C4.52 -0.24, 4.05 -0.01, 4.05 0.06 M3.81 -0.13 C4.59 -0.15, 5.84 0.59, 6.48 1.1 C7.12 1.61, 7.5 2.16, 7.65 2.94 C7.8 3.72, 7.76 5.01, 7.38 5.77 C7 6.53, 6.19 7.21, 5.4 7.5 C4.61 7.79, 3.43 7.79, 2.63 7.49 C1.83 7.18, 1.04 6.41, 0.61 5.68 C0.18 4.95, -0.05 3.92, 0.08 3.1 C0.2 2.29, 0.72 1.28, 1.38 0.77 C2.04 0.26, 3.61 0.15, 4.03 0.06 C4.45 -0.02, 3.91 0.17, 3.9 0.24" stroke="#1e1e1e" stroke-width="1" fill="none"></path></g><g stroke-linecap="round"><g transform="translate(255.6989813132662 78.93981249654735) rotate(0 11.689009850636069 4.647242511809949)"><path d="M0.13 -0.04 C4.02 1.53, 19.57 7.72, 23.43 9.28 M-0.01 -0.2 C3.86 1.41, 19.39 7.86, 23.32 9.48" stroke="#1e1e1e" stroke-width="1" fill="none"></path></g></g><mask></mask><g stroke-linecap="round" transform="translate(276.97231560170036 84.2034779656928) rotate(0 4.144707364292799 4.204357284577384)"><path d="M4.12 -0.03 C4.99 -0.1, 6.04 0.28, 6.73 0.85 C7.41 1.42, 8.02 2.52, 8.23 3.41 C8.43 4.31, 8.37 5.45, 7.93 6.21 C7.5 6.97, 6.46 7.61, 5.63 7.95 C4.79 8.29, 3.78 8.46, 2.93 8.23 C2.08 8, 1.01 7.36, 0.53 6.58 C0.05 5.79, -0.07 4.43, 0.05 3.53 C0.17 2.62, 0.58 1.69, 1.24 1.13 C1.89 0.57, 3.49 0.35, 3.98 0.15 C4.48 -0.05, 4.22 -0.1, 4.21 -0.07 M4.21 0.08 C5.08 0.04, 6.33 0.41, 6.98 1.01 C7.63 1.6, 8.01 2.77, 8.11 3.65 C8.21 4.53, 8.08 5.56, 7.59 6.31 C7.1 7.05, 6.01 7.84, 5.15 8.13 C4.29 8.41, 3.17 8.37, 2.41 8.01 C1.64 7.64, 0.94 6.74, 0.57 5.94 C0.21 5.15, -0.01 4.13, 0.2 3.24 C0.41 2.36, 1.14 1.12, 1.83 0.62 C2.52 0.12, 3.94 0.3, 4.34 0.24 C4.75 0.19, 4.24 0.29, 4.25 0.29" stroke="none" stroke-width="0" fill="#1e1e1e"></path><path d="M4.04 0.13 C4.88 0.02, 5.95 0.35, 6.61 0.87 C7.28 1.39, 7.82 2.4, 8.03 3.26 C8.25 4.13, 8.28 5.26, 7.9 6.05 C7.53 6.83, 6.62 7.62, 5.79 7.98 C4.95 8.34, 3.74 8.49, 2.89 8.21 C2.04 7.94, 1.15 7.07, 0.66 6.33 C0.18 5.59, -0.12 4.65, -0.01 3.78 C0.1 2.9, 0.69 1.72, 1.32 1.09 C1.96 0.46, 3.36 0.17, 3.81 0.01 C4.26 -0.16, 3.97 0.06, 4.02 0.11 M4.05 -0.14 C4.94 -0.21, 6.2 0.43, 6.9 1.03 C7.6 1.64, 8.16 2.64, 8.27 3.48 C8.37 4.32, 7.99 5.28, 7.54 6.07 C7.1 6.85, 6.42 7.82, 5.58 8.17 C4.74 8.51, 3.3 8.39, 2.5 8.12 C1.7 7.85, 1.18 7.29, 0.78 6.53 C0.38 5.78, -0.01 4.5, 0.1 3.6 C0.2 2.7, 0.71 1.7, 1.41 1.13 C2.1 0.57, 3.81 0.36, 4.26 0.22 C4.71 0.07, 4.07 0.23, 4.09 0.27" stroke="#1e1e1e" stroke-width="1" fill="none"></path></g><g stroke-linecap="round"><g transform="translate(283.7685636911514 88.9700946685158) rotate(0 12.411548154421808 -4.220749359843779)"><path d="M-0.03 0.08 C4.12 -1.35, 20.71 -7.17, 24.87 -8.58 M-0.24 -0.03 C3.88 -1.44, 20.58 -7, 24.77 -8.44" stroke="#1e1e1e" stroke-width="1" fill="none"></path></g></g><mask></mask><g stroke-linecap="round" transform="translate(349.2588208922814 10.947496954103684) rotate(0 45.95938157572999 44.250987704362885)"><path d="M22.13 0 C40.5 1.39, 59.94 -1.22, 69.79 0 M22.13 0 C33.49 1.26, 44.25 0.46, 69.79 0 M69.79 0 C83.59 0.98, 92.31 7.83, 91.92 22.13 M69.79 0 C83.28 0.34, 93.97 8.78, 91.92 22.13 M91.92 22.13 C90.27 36.68, 93.23 54.31, 91.92 66.38 M91.92 22.13 C92.77 37.22, 91.62 51.07, 91.92 66.38 M91.92 66.38 C92.98 79.9, 84.6 88.18, 69.79 88.5 M91.92 66.38 C92.1 82.6, 84.19 86.87, 69.79 88.5 M69.79 88.5 C51.23 87.64, 32.43 88.99, 22.13 88.5 M69.79 88.5 C53.39 88.69, 37.94 88.27, 22.13 88.5 M22.13 88.5 C7.26 86.98, 0.68 81.09, 0 66.38 M22.13 88.5 C9.47 88.1, -0.77 82.55, 0 66.38 M0 66.38 C1.37 54.26, -0.43 41.27, 0 22.13 M0 66.38 C-1.35 51.22, 0.22 36.59, 0 22.13 M0 22.13 C1.28 8.77, 6.6 -0.44, 22.13 0 M0 22.13 C-2.03 6.71, 8.04 2.1, 22.13 0" stroke="#1e1e1e" stroke-width="0.5" fill="none"></path></g><g stroke-linecap="round" transform="translate(360.5751755100314 30.8320449802263) rotate(0 4.144707364292799 4.204357284577384)"><path d="M4.55 -0.01 C5.4 0, 6.41 0.49, 7.05 1.13 C7.69 1.77, 8.3 2.92, 8.38 3.83 C8.46 4.74, 8.05 5.84, 7.54 6.6 C7.03 7.36, 6.21 8.19, 5.34 8.4 C4.47 8.61, 3.16 8.26, 2.34 7.88 C1.52 7.51, 0.77 6.9, 0.41 6.13 C0.06 5.36, -0.02 4.17, 0.22 3.27 C0.45 2.37, 1.13 1.3, 1.84 0.73 C2.54 0.16, 4.01 -0.03, 4.44 -0.13 C4.88 -0.23, 4.43 0.07, 4.45 0.15 M3.94 -0.04 C4.74 -0.15, 5.78 0.27, 6.51 0.84 C7.24 1.4, 8.13 2.48, 8.31 3.36 C8.5 4.25, 8.03 5.36, 7.6 6.17 C7.17 6.97, 6.52 7.91, 5.75 8.22 C4.98 8.52, 3.83 8.27, 2.98 8.01 C2.14 7.74, 1.19 7.31, 0.68 6.63 C0.17 5.95, -0.2 4.83, -0.07 3.94 C0.05 3.05, 0.74 1.95, 1.41 1.28 C2.08 0.62, 3.53 0.16, 3.92 -0.03 C4.32 -0.22, 3.79 0.05, 3.78 0.13" stroke="none" stroke-width="0" fill="#1e1e1e"></path><path d="M3.76 0.05 C4.64 -0.05, 6.01 0.28, 6.75 0.8 C7.48 1.31, 7.99 2.24, 8.19 3.13 C8.39 4.01, 8.33 5.29, 7.94 6.1 C7.55 6.9, 6.67 7.58, 5.85 7.96 C5.03 8.35, 3.85 8.6, 3.01 8.39 C2.17 8.17, 1.31 7.45, 0.8 6.65 C0.29 5.85, -0.11 4.54, -0.05 3.6 C0.01 2.67, 0.48 1.63, 1.16 1.02 C1.84 0.42, 3.56 0.1, 4.03 -0.03 C4.5 -0.16, 4.01 0.14, 3.98 0.23 M4.48 -0.14 C5.36 -0.16, 6.34 0.42, 6.97 1.08 C7.6 1.75, 8.17 2.97, 8.28 3.84 C8.38 4.71, 8.04 5.56, 7.59 6.31 C7.14 7.06, 6.44 8.04, 5.59 8.34 C4.74 8.64, 3.36 8.46, 2.49 8.09 C1.62 7.72, 0.75 6.91, 0.36 6.12 C-0.03 5.33, -0.06 4.23, 0.17 3.36 C0.41 2.5, 1.06 1.49, 1.75 0.93 C2.44 0.38, 3.84 0.17, 4.29 0.01 C4.74 -0.15, 4.45 -0.04, 4.45 0" stroke="#1e1e1e" stroke-width="1" fill="none"></path></g><g stroke-linecap="round" transform="translate(360.4379073881936 74.61841627754453) rotate(0 4.144707364292799 4.204357284577384)"><path d="M4.22 0.05 C5.05 0, 6.07 0.4, 6.75 0.99 C7.42 1.58, 8.14 2.73, 8.29 3.58 C8.44 4.44, 8.1 5.34, 7.65 6.12 C7.2 6.89, 6.4 7.88, 5.6 8.24 C4.8 8.6, 3.67 8.6, 2.85 8.27 C2.04 7.95, 1.16 7.1, 0.69 6.28 C0.22 5.46, -0.1 4.24, 0.02 3.37 C0.14 2.5, 0.69 1.64, 1.4 1.06 C2.11 0.48, 3.84 0.05, 4.28 -0.1 C4.72 -0.25, 4.06 0.04, 4.04 0.13 M4.22 0.11 C5.04 0.06, 5.86 0.43, 6.52 1 C7.18 1.58, 7.98 2.72, 8.2 3.56 C8.41 4.4, 8.24 5.25, 7.81 6.03 C7.38 6.82, 6.48 7.87, 5.62 8.26 C4.77 8.66, 3.51 8.7, 2.68 8.41 C1.86 8.12, 1.12 7.33, 0.69 6.51 C0.25 5.69, -0.04 4.41, 0.06 3.5 C0.16 2.59, 0.64 1.64, 1.29 1.07 C1.94 0.49, 3.55 0.19, 3.98 0.05 C4.4 -0.09, 3.81 0.17, 3.85 0.23" stroke="none" stroke-width="0" fill="#1e1e1e"></path><path d="M4.25 -0.08 C5.08 -0.1, 6.28 0.48, 6.95 1.07 C7.62 1.66, 8.15 2.56, 8.28 3.47 C8.4 4.38, 8.16 5.72, 7.72 6.52 C7.27 7.33, 6.44 8.05, 5.58 8.29 C4.73 8.54, 3.44 8.35, 2.57 7.98 C1.71 7.62, 0.79 6.86, 0.4 6.09 C0 5.32, 0 4.19, 0.2 3.36 C0.4 2.52, 0.93 1.62, 1.59 1.07 C2.25 0.53, 3.71 0.26, 4.17 0.08 C4.64 -0.11, 4.36 -0.1, 4.37 -0.03 M3.96 0.16 C4.79 0.04, 5.87 0.14, 6.61 0.68 C7.35 1.22, 8.21 2.48, 8.41 3.39 C8.61 4.3, 8.25 5.35, 7.79 6.14 C7.33 6.92, 6.46 7.72, 5.66 8.08 C4.86 8.44, 3.81 8.57, 2.99 8.32 C2.18 8.06, 1.27 7.34, 0.77 6.57 C0.27 5.8, -0.14 4.61, -0.03 3.69 C0.08 2.76, 0.77 1.67, 1.43 1.03 C2.09 0.38, 3.49 -0.02, 3.92 -0.18 C4.36 -0.34, 3.98 -0.01, 4.03 0.09" stroke="#1e1e1e" stroke-width="1" fill="none"></path></g><g stroke-linecap="round" transform="translate(420.4510477313463 31.162214319687763) rotate(0 4.144707364292799 4.204357284577384)"><path d="M3.99 0.03 C4.82 -0.03, 6.1 0.53, 6.78 1.05 C7.47 1.58, 7.93 2.32, 8.1 3.2 C8.27 4.07, 8.19 5.46, 7.8 6.3 C7.41 7.13, 6.57 7.91, 5.77 8.21 C4.96 8.52, 3.82 8.46, 2.96 8.13 C2.09 7.81, 1.08 7.02, 0.58 6.27 C0.09 5.52, -0.16 4.53, 0 3.65 C0.15 2.76, 0.88 1.57, 1.53 0.97 C2.19 0.37, 3.5 0.19, 3.94 0.05 C4.37 -0.1, 4.11 0.05, 4.13 0.1 M3.9 0.06 C4.71 0.01, 6.06 0.59, 6.78 1.13 C7.51 1.66, 8.11 2.36, 8.27 3.25 C8.43 4.13, 8.21 5.57, 7.74 6.43 C7.27 7.29, 6.28 8.08, 5.46 8.39 C4.65 8.7, 3.65 8.66, 2.83 8.31 C2.02 7.95, 1.05 7.07, 0.56 6.27 C0.08 5.48, -0.22 4.4, -0.08 3.52 C0.05 2.65, 0.71 1.6, 1.37 1.04 C2.03 0.48, 3.43 0.3, 3.91 0.15 C4.39 -0.01, 4.21 0.04, 4.26 0.1" stroke="none" stroke-width="0" fill="#1e1e1e"></path><path d="M4.19 0.03 C5.03 -0.03, 6.14 0.28, 6.82 0.87 C7.49 1.46, 8.07 2.66, 8.24 3.58 C8.42 4.5, 8.31 5.65, 7.85 6.38 C7.4 7.12, 6.39 7.73, 5.52 8 C4.65 8.27, 3.45 8.31, 2.65 8.03 C1.84 7.74, 1.12 7.03, 0.7 6.3 C0.27 5.58, -0.01 4.53, 0.1 3.66 C0.21 2.78, 0.69 1.71, 1.37 1.08 C2.06 0.46, 3.77 0.04, 4.24 -0.11 C4.7 -0.26, 4.2 0.08, 4.16 0.17 M4.05 -0.17 C4.93 -0.24, 6.3 0.46, 6.99 1.07 C7.68 1.67, 8.06 2.57, 8.18 3.44 C8.29 4.3, 8.08 5.46, 7.67 6.26 C7.25 7.06, 6.48 7.9, 5.68 8.23 C4.88 8.56, 3.74 8.57, 2.88 8.26 C2.02 7.94, 0.97 7.16, 0.52 6.36 C0.06 5.56, 0.01 4.35, 0.16 3.43 C0.31 2.51, 0.76 1.41, 1.43 0.83 C2.09 0.26, 3.69 0.13, 4.17 0 C4.66 -0.14, 4.34 -0.05, 4.31 0.04" stroke="#1e1e1e" stroke-width="1" fill="none"></path></g><g stroke-linecap="round"><g transform="translate(365.4639939718211 36.326670382943774) rotate(0 -0.15691937027867198 21.649711277062522)"><path d="M-0.02 0.02 C-0.09 7.22, -0.34 36.15, -0.38 43.37 M-0.2 -0.1 C-0.3 7.13, -0.51 35.88, -0.53 43.15" stroke="#1e1e1e" stroke-width="1" fill="none"></path></g></g><mask></mask><g stroke-linecap="round"><g transform="translate(425.4815236462907 37.00390134940946) rotate(0 -0.3148711048354471 20.634897191641997)"><path d="M-0.07 0.07 C-0.17 6.95, -0.49 34.43, -0.6 41.3 M0.16 -0.02 C0.05 6.81, -0.53 34.15, -0.7 41.06" stroke="#1e1e1e" stroke-width="1" fill="none"></path></g></g><mask></mask><g stroke-linecap="round" transform="translate(419.83309916439316 75.85345919171684) rotate(0 3.862871916358131 3.7924439375959196)"><path d="M4.15 0.11 C4.97 0.16, 6.03 0.64, 6.64 1.18 C7.26 1.72, 7.75 2.58, 7.82 3.35 C7.88 4.12, 7.51 5.09, 7.02 5.78 C6.53 6.47, 5.63 7.26, 4.87 7.49 C4.1 7.72, 3.19 7.49, 2.43 7.15 C1.66 6.82, 0.65 6.2, 0.28 5.49 C-0.1 4.78, -0.04 3.68, 0.17 2.87 C0.39 2.06, 0.91 1.1, 1.57 0.63 C2.24 0.17, 3.72 0.22, 4.17 0.1 C4.62 -0.02, 4.26 -0.12, 4.26 -0.07 M4.05 0.13 C4.82 0.2, 5.76 0.69, 6.38 1.24 C7.01 1.8, 7.67 2.7, 7.79 3.46 C7.92 4.22, 7.6 5.14, 7.12 5.81 C6.63 6.47, 5.67 7.2, 4.86 7.46 C4.06 7.71, 3.04 7.64, 2.26 7.34 C1.49 7.04, 0.54 6.4, 0.2 5.67 C-0.14 4.95, -0.01 3.78, 0.21 2.97 C0.44 2.17, 0.9 1.34, 1.55 0.84 C2.2 0.35, 3.74 0.13, 4.12 -0.01 C4.5 -0.15, 3.81 -0.07, 3.83 -0.01" stroke="none" stroke-width="0" fill="#1e1e1e"></path><path d="M3.79 0.11 C4.56 -0.02, 5.52 0.19, 6.14 0.64 C6.76 1.1, 7.31 2.02, 7.52 2.83 C7.73 3.64, 7.77 4.74, 7.41 5.51 C7.06 6.27, 6.18 7.11, 5.39 7.44 C4.59 7.77, 3.41 7.77, 2.63 7.48 C1.85 7.2, 1.14 6.4, 0.7 5.72 C0.27 5.04, -0.04 4.17, 0.03 3.38 C0.11 2.6, 0.54 1.56, 1.15 1 C1.76 0.44, 3.24 0.17, 3.69 0.02 C4.14 -0.14, 3.86 -0.03, 3.85 0.05 M3.92 0 C4.72 0, 5.88 0.52, 6.53 1.08 C7.17 1.64, 7.71 2.57, 7.8 3.36 C7.89 4.15, 7.51 5.16, 7.07 5.82 C6.63 6.48, 5.93 7.09, 5.15 7.31 C4.37 7.53, 3.16 7.41, 2.39 7.12 C1.62 6.83, 0.87 6.25, 0.53 5.56 C0.18 4.86, 0.16 3.72, 0.31 2.95 C0.45 2.18, 0.8 1.43, 1.42 0.94 C2.03 0.46, 3.57 0.14, 3.98 0.02 C4.4 -0.1, 3.9 0.19, 3.92 0.25" stroke="#1e1e1e" stroke-width="1" fill="none"></path></g><g stroke-linecap="round"><g transform="translate(369.7067398368431 79.30421809502948) rotate(0 11.689009850636069 4.647242511809949)"><path d="M-0.09 0.02 C3.82 1.58, 19.6 7.87, 23.53 9.4 M0.17 -0.11 C4.07 1.4, 19.59 7.58, 23.47 9.15" stroke="#1e1e1e" stroke-width="1" fill="none"></path></g></g><mask></mask><g stroke-linecap="round" transform="translate(390.91085682450296 84.58335688694663) rotate(0 4.144707364292799 4.204357284577384)"><path d="M4.47 -0.06 C5.29 -0.11, 6.31 0.35, 6.93 0.98 C7.56 1.61, 8.07 2.83, 8.21 3.73 C8.35 4.63, 8.27 5.63, 7.77 6.39 C7.28 7.14, 6.12 7.99, 5.25 8.27 C4.39 8.55, 3.39 8.46, 2.59 8.09 C1.78 7.72, 0.84 6.83, 0.42 6.04 C0.01 5.25, -0.11 4.25, 0.1 3.35 C0.32 2.46, 1 1.25, 1.72 0.69 C2.44 0.13, 3.95 0.09, 4.41 -0.01 C4.88 -0.1, 4.52 0.05, 4.49 0.12 M4.42 0.15 C5.29 0.09, 6.34 0.47, 6.95 1.07 C7.56 1.66, 8.01 2.79, 8.11 3.7 C8.21 4.61, 8.03 5.74, 7.53 6.51 C7.04 7.29, 5.97 8.1, 5.16 8.36 C4.35 8.63, 3.45 8.46, 2.68 8.11 C1.9 7.75, 0.91 7.02, 0.49 6.22 C0.08 5.41, 0.02 4.19, 0.17 3.28 C0.32 2.38, 0.68 1.33, 1.4 0.78 C2.12 0.23, 4.05 0.09, 4.5 -0.03 C4.96 -0.14, 4.13 0.01, 4.13 0.1" stroke="none" stroke-width="0" fill="#1e1e1e"></path><path d="M4.26 -0.14 C5.14 -0.12, 6.43 0.44, 7.11 1.1 C7.78 1.77, 8.23 2.93, 8.3 3.85 C8.38 4.76, 8.01 5.87, 7.54 6.58 C7.06 7.29, 6.28 7.86, 5.44 8.12 C4.61 8.38, 3.36 8.49, 2.51 8.16 C1.66 7.82, 0.75 6.92, 0.35 6.11 C-0.06 5.29, -0.15 4.14, 0.08 3.26 C0.32 2.38, 1.06 1.33, 1.77 0.81 C2.47 0.3, 3.84 0.28, 4.29 0.16 C4.75 0.03, 4.5 0.03, 4.52 0.07 M4.25 0.08 C5.07 0.01, 6.07 0.44, 6.75 0.99 C7.42 1.54, 8.17 2.53, 8.33 3.38 C8.49 4.24, 8.17 5.33, 7.72 6.12 C7.27 6.92, 6.44 7.82, 5.64 8.15 C4.85 8.48, 3.81 8.39, 2.95 8.11 C2.09 7.83, 0.96 7.23, 0.47 6.46 C-0.01 5.69, -0.12 4.37, 0.03 3.49 C0.19 2.61, 0.69 1.74, 1.39 1.15 C2.09 0.56, 3.76 0.11, 4.22 -0.05 C4.69 -0.21, 4.17 0.14, 4.19 0.19" stroke="#1e1e1e" stroke-width="1" fill="none"></path></g><g stroke-linecap="round"><g transform="translate(397.77632221472845 89.33450026699794) rotate(0 12.411548154421808 -4.220749359843779)"><path d="M0.12 -0.08 C4.2 -1.52, 20.58 -7.19, 24.68 -8.56 M-0.03 0.24 C4.1 -1.19, 20.8 -6.94, 24.98 -8.41" stroke="#1e1e1e" stroke-width="1" fill="none"></path></g></g><mask></mask><g stroke-linecap="round"><g transform="translate(398.2077898196164 25.50876643039578) rotate(179.19145229528874 11.689009850636069 4.647242511809949)"><path d="M-0.04 0.17 C3.84 1.72, 19.55 7.79, 23.43 9.31 M0.24 0.11 C4.1 1.7, 19.44 7.97, 23.32 9.53" stroke="#1e1e1e" stroke-width="1" fill="none"></path></g></g><mask></mask><g stroke-linecap="round" transform="translate(392.0339463854587 21.65619909858964) rotate(179.19145229528874 4.144707364292799 4.204357284577384)"><path d="M4.1 0.02 C4.93 -0.06, 6.03 0.25, 6.71 0.81 C7.39 1.37, 8.02 2.48, 8.17 3.41 C8.32 4.33, 8.02 5.56, 7.61 6.34 C7.21 7.11, 6.55 7.77, 5.75 8.08 C4.95 8.38, 3.65 8.46, 2.79 8.16 C1.94 7.86, 1.06 7.07, 0.62 6.27 C0.19 5.48, 0.06 4.26, 0.19 3.39 C0.32 2.52, 0.78 1.63, 1.41 1.06 C2.04 0.48, 3.54 0.11, 3.98 -0.05 C4.42 -0.22, 4.05 -0.01, 4.06 0.07 M4.5 -0.12 C5.38 -0.16, 6.34 0.41, 6.99 1.07 C7.64 1.72, 8.33 2.86, 8.39 3.81 C8.45 4.76, 7.89 6.04, 7.37 6.79 C6.86 7.53, 6.09 8.06, 5.31 8.29 C4.53 8.53, 3.53 8.57, 2.69 8.19 C1.86 7.81, 0.75 6.84, 0.32 5.99 C-0.11 5.14, -0.09 4, 0.13 3.12 C0.34 2.23, 0.85 1.16, 1.59 0.66 C2.33 0.15, 4.11 0.14, 4.57 0.08 C5.03 0.03, 4.39 0.25, 4.34 0.32" stroke="none" stroke-width="0" fill="#1e1e1e"></path><path d="M3.92 0.16 C4.74 0.01, 5.72 0.19, 6.45 0.66 C7.17 1.14, 8.01 2.13, 8.25 3.03 C8.48 3.92, 8.24 5.17, 7.84 6.02 C7.45 6.86, 6.68 7.73, 5.85 8.1 C5.03 8.48, 3.78 8.49, 2.91 8.25 C2.03 8.01, 1.06 7.41, 0.59 6.65 C0.12 5.89, 0.01 4.61, 0.11 3.69 C0.21 2.76, 0.57 1.72, 1.21 1.11 C1.85 0.51, 3.49 0.23, 3.93 0.05 C4.38 -0.14, 3.86 -0.06, 3.87 0.01 M4.46 -0.22 C5.26 -0.24, 6.31 0.38, 6.92 1.02 C7.52 1.67, 7.95 2.75, 8.1 3.66 C8.24 4.57, 8.25 5.74, 7.76 6.5 C7.27 7.26, 6.08 8, 5.17 8.23 C4.26 8.47, 3.13 8.3, 2.32 7.92 C1.5 7.55, 0.66 6.79, 0.29 6 C-0.08 5.2, -0.11 3.98, 0.08 3.14 C0.27 2.3, 0.75 1.52, 1.42 0.96 C2.09 0.4, 3.59 -0.08, 4.12 -0.21 C4.64 -0.33, 4.58 0.06, 4.58 0.2" stroke="#1e1e1e" stroke-width="1" fill="none"></path></g><g stroke-linecap="round"><g transform="translate(368.7781534393761 34.09809062526605) rotate(179.19145229528874 12.411548154421808 -4.220749359843779)"><path d="M-0.17 -0.01 C3.98 -1.4, 20.71 -6.9, 24.9 -8.33 M0.05 -0.16 C4.18 -1.6, 20.66 -7.19, 24.81 -8.56" stroke="#1e1e1e" stroke-width="1" fill="none"></path></g></g><mask></mask></svg>